<?xml version="1.0" encoding="iso-8859-1"?>
<!-- Generator: Adobe Illustrator 19.1.0, SVG Export Plug-In . SVG Version: 6.00 Build 0)  -->
<svg xmlns="http://www.w3.org/2000/svg" xmlns:xlink="http://www.w3.org/1999/xlink" version="1.1" id="Capa_1" x="0px" y="0px" viewBox="0 0 527.092 527.092" style="enable-background:new 0 0 527.092 527.092;" xml:space="preserve" width="512px" height="512px">
<g>
	<g>
		<path d="M263.546,0C119.342,0,0,119.342,0,263.546s119.342,263.546,263.546,263.546S527.092,407.75,527.092,263.546    S410.237,0,263.546,0z M263.546,502.229c-131.773,0-238.683-106.91-238.683-238.683S131.773,24.863,263.546,24.863    s238.683,106.91,238.683,238.683S395.319,502.229,263.546,502.229z" fill="#454545"/>
		<path d="M268.519,181.499c-4.973-4.973-12.431-4.973-17.404,0L119.342,300.84c-4.973,4.973-4.973,12.431,0,17.404    s12.431,4.973,17.404,0L261.06,206.361l126.8,111.883c2.486,2.486,4.973,2.486,7.459,2.486c2.486,0,7.459-2.486,9.945-4.973    c4.973-4.973,4.973-12.431,0-17.404L268.519,181.499z" fill="#454545"/>
	</g>
</g>
<g>
</g>
<g>
</g>
<g>
</g>
<g>
</g>
<g>
</g>
<g>
</g>
<g>
</g>
<g>
</g>
<g>
</g>
<g>
</g>
<g>
</g>
<g>
</g>
<g>
</g>
<g>
</g>
<g>
</g>
</svg>
